<?xml version="1.0" encoding="utf-8"?>
<!-- Generator: Adobe Illustrator 23.0.3, SVG Export Plug-In . SVG Version: 6.00 Build 0)  -->
<svg version="1.1" id="Layer_1" xmlns="http://www.w3.org/2000/svg" xmlns:xlink="http://www.w3.org/1999/xlink" x="0px" y="0px"
	 viewBox="0 0 200 200" style="enable-background:new 0 0 200 200;" xml:space="preserve">
<style type="text/css">
	.st0{fill:#4285F4;}
</style>
<path class="st0" d="M88.2,122.4c0-4.5,0-9,0-13.4s0-8.8,0-13.2s0-8.7,0-13.1s0-8.8,0-13.2c-0.5,0.4-0.9,0.8-1.3,1.1
	c-0.4,0.3-0.8,0.7-1.2,1s-0.7,0.6-1.1,0.9s-0.7,0.6-1.1,0.8c-1.1,0.8-2.3,1.5-3.5,1.9s-2.4,0.7-3.7,0.7s-2.5-0.1-3.7-0.5
	s-2.4-0.9-3.6-1.7c-1.1-0.7-2.1-1.6-2.8-2.6s-1.4-2.1-1.9-3.3c-0.5-1.2-0.7-2.4-0.8-3.7c-0.1-1.3,0-2.6,0.4-4
	c0.3-1.3,0.8-2.4,1.5-3.5c0.7-1.1,1.5-2,2.5-2.8s2.1-1.5,3.3-2c1.2-0.5,2.5-0.8,3.8-0.9c0.5,0,1.1-0.1,1.6-0.1s1.1,0,1.6,0
	s1.1,0,1.6,0s1.1,0,1.6,0s1,0,1.5,0s1,0,1.6,0s1.2,0,1.8,0c0.6,0,1.3,0,2.1,0c0-1.1,0-2.2,0-3.2s0-2.1-0.1-3.1s0-2.1,0-3.1
	s0.1-2,0.1-3c0.1-1.9,0.6-3.6,1.2-5.2c0.6-1.5,1.5-2.9,2.6-3.9s2.3-1.9,3.8-2.5s3-0.9,4.7-0.9c1.8,0,3.4,0.3,4.8,0.8
	s2.8,1.4,3.9,2.5s2,2.5,2.7,4c0.7,1.6,1.1,3.4,1.2,5.3c0.1,1,0.1,2,0.1,2.9s0,2,0,3s0,2-0.1,3.1c0,1,0,2.1,0,3.2c1.1,0,2.1,0,3,0
	c1,0,1.9,0,2.8,0s1.8,0,2.7,0s1.7,0,2.6,0c1.7,0,3.3,0.2,4.8,0.6c1.5,0.4,2.8,1,3.9,1.8s2.1,1.7,2.9,2.8s1.4,2.4,1.8,3.8
	c0.4,1.3,0.5,2.7,0.4,4.1c-0.1,1.4-0.3,2.6-0.8,3.8c-0.5,1.2-1.1,2.4-1.9,3.4s-1.8,1.9-3,2.7c-1.3,0.8-2.6,1.4-3.9,1.7
	c-1.3,0.3-2.7,0.4-4,0.2c-1.3-0.2-2.7-0.6-4-1.3s-2.7-1.6-4-2.7c-0.2-0.2-0.4-0.3-0.6-0.5s-0.4-0.3-0.6-0.6
	c-0.2-0.2-0.5-0.4-0.7-0.7c-0.3-0.3-0.6-0.5-0.9-0.8c0,1.8,0,3.5,0,5.3c0,1.7,0,3.4,0,5.1s0,3.4,0,5.1s0,3.5,0,5.3
	c1.8-1.6,3.6-2.6,5.3-3.2c1.7-0.6,3.4-0.7,5.1-0.5s3.3,0.8,5,1.5c1.6,0.8,3.3,1.7,4.9,2.8c1.8,1.1,3.6,2.2,5.4,3.3
	c1.8,1.1,3.6,2.2,5.5,3.2c1.8,1.1,3.7,2.1,5.5,3.1s3.7,2.1,5.6,3.1c1.2,0.7,2.3,1.5,3.3,2.4s1.7,1.8,2.3,2.9s1.1,2.2,1.4,3.4
	c0.3,1.2,0.4,2.6,0.4,4c0,1.9,0,3.8,0,5.6c0,1.9,0,3.8,0,5.6c0,1.9,0,3.8-0.1,5.6s-0.1,3.7-0.3,5.6c-0.3,4.1-1.1,7.9-2.4,11.4
	s-2.9,6.7-5,9.6s-4.7,5.4-7.6,7.6s-6.4,4.1-10.1,5.6c-3.8,1.5-7.5,2.5-11.2,3s-7.3,0.4-10.8-0.2c-3.5-0.6-6.9-1.7-10.2-3.4
	c-3.3-1.7-6.4-3.9-9.4-6.6c-3.8-3.5-7.5-7-11.1-10.6s-7.3-7.2-10.9-10.8s-7.2-7.3-10.8-10.9s-7.2-7.3-10.8-10.9
	c-0.8-0.8-1.3-1.6-1.7-2.3s-0.4-1.5-0.3-2.2s0.5-1.4,1.1-2c0.6-0.7,1.4-1.3,2.4-1.9c2.1-1.3,4.5-2.1,6.9-2.6s4.9-0.6,7.4-0.3
	s4.9,0.9,7.3,1.8c2.3,1,4.5,2.3,6.5,4c0.4,0.3,0.8,0.7,1.2,1.1s0.8,0.8,1.3,1.2c0.4,0.4,0.9,0.9,1.4,1.4
	C87,121.3,87.6,121.8,88.2,122.4z M89.4,57.3c-1.4,0-2.8,0-4,0s-2.4,0-3.6-0.1c-1.1,0-2.2,0-3.3,0c-1.1,0-2.1,0.1-3.1,0.2
	c-1,0.1-1.9,0.4-2.7,0.8c-0.8,0.4-1.4,1-1.9,1.7s-0.8,1.4-1,2.3c-0.2,0.8-0.2,1.7,0,2.7c0.2,0.9,0.5,1.7,0.9,2.4
	c0.4,0.7,0.9,1.3,1.5,1.7s1.3,0.7,2,0.8s1.5,0.1,2.4-0.2c1.4-0.4,2.6-1.1,3.7-1.8c1.1-0.8,2.2-1.7,3.2-2.7s1.9-2.2,2.8-3.5
	C87.6,60.2,88.5,58.8,89.4,57.3z M114.1,57.3c-0.1,0.2-0.2,0.3-0.3,0.5s-0.2,0.3-0.3,0.5c-0.1,0.2-0.2,0.3-0.3,0.5s-0.2,0.3-0.3,0.5
	c0.8,0.8,1.5,1.6,2.2,2.4s1.5,1.6,2.2,2.4c0.8,0.8,1.5,1.6,2.3,2.3c0.8,0.7,1.6,1.4,2.5,2c0.4,0.3,1,0.5,1.6,0.7s1.3,0.3,1.9,0.3
	s1.3,0,2-0.1c0.7-0.1,1.2-0.3,1.6-0.6c0.4-0.2,0.8-0.6,1.1-1.1s0.6-1.1,0.9-1.7s0.4-1.2,0.5-1.8s0.1-1.2,0-1.6s-0.4-1-0.7-1.5
	s-0.8-1-1.2-1.4s-1-0.8-1.5-1.1s-1-0.5-1.5-0.6c-1-0.2-2.1-0.3-3.1-0.3c-1.1,0-2.1-0.1-3.2,0c-1.1,0-2.1,0.1-3.2,0.1
	C116.2,57.3,115.2,57.3,114.1,57.3z"/>
</svg>
